<svg xmlns="http://www.w3.org/2000/svg" viewBox="0 0 54.24 54.24"><defs><style>.cls-1{fill:#e50012;}.cls-2{fill:#fff;}.cls-3{fill:none;stroke:#fff;stroke-miterlimit:10;stroke-width:0.28px;}</style></defs><g id="レイヤー_2" data-name="レイヤー 2"><g id="レイヤー_1-2" data-name="レイヤー 1"><circle class="cls-1" cx="27.12" cy="27.12" r="27.12"/><path class="cls-2" d="M13.14,27.05H10.86V23.94H5.79v-1.6l4.57-7.86h2.78v7.6h1.44v1.86H13.14ZM8,22.08h2.88V19c0-.73.05-1.53.1-2.28h-.07c-.38.8-.68,1.5-1.06,2.22L8,22.05Z"/><path class="cls-2" d="M16.65,27.8H15l4.38-13.74H21Z"/><path class="cls-2" d="M25.06,27.05V16.67h0L22.87,17.8,22.34,16l3.06-1.56h2.06V27.05Z"/><path class="cls-2" d="M42.41,26.68a8.12,8.12,0,0,0-1.62-1,1.47,1.47,0,0,1-.23.86c-.14.3-.53.48-1.14.5-1,0-1.72-.47-1.74-1.22s.79-1.2,1.62-1.21a4,4,0,0,1,.6,0,2.36,2.36,0,0,0,0-.29c-.06-.9-.14-2.46-.15-3.24l1.08.06c0,.06,0,.12-.16.15s0,.95,0,1.13a17.37,17.37,0,0,0,2-.22l.08.83a18.62,18.62,0,0,1-2.1.19c0,.46.05.88.07,1.2l0,.33A7.88,7.88,0,0,1,43,25.9Zm-3.07-1.42c-.7,0-.9.28-.9.5s.41.5.86.5.64-.2.64-.5a3.1,3.1,0,0,0,0-.42A2,2,0,0,0,39.34,25.26Z"/><path class="cls-2" d="M45.2,24.88A6,6,0,0,1,45,23.43a12.48,12.48,0,0,1,.19-2l1,.14a.18.18,0,0,1-.17.12,8.14,8.14,0,0,0-.23,1.89,8.64,8.64,0,0,1,.5-.91,3.93,3.93,0,0,0,.38.54,3.55,3.55,0,0,0-.72,1.4,1,1,0,0,0,0,.16ZM49,21.23c0,.08-.06.13-.17.16A22,22,0,0,1,49,23.65c0,1.29-.42,2.5-2.54,3.37a6.07,6.07,0,0,0-.6-.66c1.82-.71,2.21-1.79,2.21-2.7a22.92,22.92,0,0,0-.16-2.48Z"/><path class="cls-2" d="M5.86,32.09h4.69l.07,0,1,.69a.64.64,0,0,1-.15.13,6.44,6.44,0,0,1-4.29,5.06,6.29,6.29,0,0,0-.74-1,5.18,5.18,0,0,0,3.61-3.76H5.86Zm5.81-1.22a.81.81,0,1,1-.81.81A.81.81,0,0,1,11.67,30.87Zm.51.81a.5.5,0,0,0-.51-.5.5.5,0,0,0-.5.5.51.51,0,1,0,1,0Z"/><path class="cls-2" d="M15.27,36.38a6.27,6.27,0,0,0,3.6-2.69,7.34,7.34,0,0,0,.83.84,8.15,8.15,0,0,1-5,3.22.31.31,0,0,1-.18.19l-.63-1,.12-.21V31.45l1.46.08c0,.09-.08.16-.24.19Z"/><path class="cls-2" d="M27,33.79H25l0,2.93c0,1.21-.72,1.22-2.24,1.22a5.82,5.82,0,0,0-.3-1h.6c.75,0,.8,0,.8-.21l0-2a10.34,10.34,0,0,1-2.67,2.28,4.15,4.15,0,0,0-.81-.87,9.41,9.41,0,0,0,2.82-2.28H20.79V32.71h3.06l0-1.47,1.38,0c0,.09-.06.15-.23.18l0,1.25h2Z"/><path class="cls-2" d="M28.2,33.91h6.32v1.15h-6a.34.34,0,0,1-.27.14Z"/><path class="cls-2" d="M36.12,32.09h4.7l.06,0,1,.69a.64.64,0,0,1-.15.13,6.42,6.42,0,0,1-4.29,5.06,6.29,6.29,0,0,0-.74-1,5.18,5.18,0,0,0,3.61-3.76H36.12Zm5.82-1.22a.81.81,0,1,1,0,1.62.81.81,0,0,1,0-1.62Zm.5.81a.5.5,0,0,0-.5-.5.5.5,0,0,0-.51.5.51.51,0,0,0,.51.51A.5.5,0,0,0,42.44,31.68Z"/><path class="cls-2" d="M44.1,31.68a9.68,9.68,0,0,1,2.2,1l-.61,1.05a11.83,11.83,0,0,0-2.14-1Zm-.37,5.06a7.57,7.57,0,0,0,5.09-4.31,7.23,7.23,0,0,0,1.08.69,8.85,8.85,0,0,1-5.21,4.57.26.26,0,0,1-.14.21Z"/><path class="cls-2" d="M34.12,23.61H32.86a4,4,0,0,0,1.41,1.46,2.23,2.23,0,0,0-.35.4,4.38,4.38,0,0,1-1.24-1.35v1.74h-.49V24.14a3.92,3.92,0,0,1-1.25,1.36,1.8,1.8,0,0,0-.34-.39A3.67,3.67,0,0,0,32,23.61H30.75v-.45h1.44v-.9l.6,0c0,.05,0,.07-.11.08v.79h1.44Z"/><rect class="cls-3" x="29.6" y="21.26" width="5.69" height="5.69"/></g></g></svg>