<svg version="1" xmlns="http://www.w3.org/2000/svg" width="933.333" height="933.333" viewBox="0 0 700.000000 700.000000"><path d="M340 102.6c0 27.3-.4 49.4-.8 49.2-.5-.2-15.8-16-34.2-35.1-18.3-19.1-33.6-34.6-34-34.5-.4.2-3.4 2.8-6.8 5.8l-6.1 5.6 40 41.6c21.9 23 39.9 42.2 39.9 42.8 0 .6-52.4 103.1-116.4 227.8-64 124.7-118 230-120 233.9L98 647h202l.2-53.8.3-53.7h99l.3 53.7.2 53.8h202l-5.9-11.3c-3.3-6.1-58-111.7-121.6-234.6L358.9 177.8l7.8-8.2c4.2-4.4 22.3-23.3 40.2-41.9l32.4-33.8-5.9-6c-3.2-3.3-6.4-5.8-7-5.7-.6.2-16.2 16-34.5 35.2l-33.4 34.8-.3-49.6L358 53h-18v49.6z"/></svg>