<svg xmlns="http://www.w3.org/2000/svg" width="24" height="24" viewBox="0 0 24 24">
  <defs>
    <style>
      .cls-1 {
        fill-rule: evenodd;
      }
    </style>
  </defs>
  <path id="sns_y.svg" class="cls-1" d="M1364,40a12,12,0,1,1-12,12A12,12,0,0,1,1364,40Zm5.75,9.249a1.481,1.481,0,0,0-1.06-1.01,46.252,46.252,0,0,0-9.38,0,1.481,1.481,0,0,0-1.06,1.01,15.256,15.256,0,0,0,0,5.5,1.482,1.482,0,0,0,1.06,1.011,46.06,46.06,0,0,0,9.38,0,1.482,1.482,0,0,0,1.06-1.011A15.256,15.256,0,0,0,1369.75,49.249Zm-6.98,4.439V50.312L1365.91,52Z" transform="translate(-1352 -40)"/>
</svg>
