<svg xmlns="http://www.w3.org/2000/svg" width="24" height="24" viewBox="0 0 24 24">
  <defs>
    <style>
      .cls-1 {
        fill-rule: evenodd;
      }
    </style>
  </defs>
  <path id="sns_l.svg" class="cls-1" d="M1396,40a12,12,0,1,1-12,12A12,12,0,0,1,1396,40Zm6.29,11.107c0-2.839-2.82-5.148-6.29-5.148s-6.29,2.309-6.29,5.148c0,2.545,2.24,4.676,5.26,5.08a0.777,0.777,0,0,1,.55.313,1.236,1.236,0,0,1,.02.573s-0.07.448-.09,0.543c-0.02.16-.12,0.627,0.55,0.341a20.318,20.318,0,0,0,4.94-3.684h0A4.608,4.608,0,0,0,1402.29,51.107Zm-8.51,1.515a0.126,0.126,0,0,1-.12.124h-1.77a0.11,0.11,0,0,1-.08-0.035v0a0.132,0.132,0,0,1-.04-0.085h0V49.859a0.128,0.128,0,0,1,.13-0.124h0.44a0.126,0.126,0,0,1,.12.124v2.2h1.2a0.126,0.126,0,0,1,.12.123v0.445Zm1.06,0a0.119,0.119,0,0,1-.12.123h-0.44a0.119,0.119,0,0,1-.12-0.123V49.859a0.12,0.12,0,0,1,.12-0.124h0.44a0.12,0.12,0,0,1,.12.124v2.764Zm3.04,0a0.125,0.125,0,0,1-.12.123h-0.44a0.192,0.192,0,0,1-.04,0h0s0,0-.01,0h0s0,0-.01,0v0s0,0-.01,0V52.725h0a0.088,0.088,0,0,1-.04-0.03l-1.25-1.713v1.642a0.125,0.125,0,0,1-.12.123h-0.45a0.125,0.125,0,0,1-.12-0.123V49.859a0.126,0.126,0,0,1,.12-0.124h0.47v0h0.01s0,0,.01,0h0s0,0,.01,0v0a0.045,0.045,0,0,1,.01,0v0s0.01,0,.01,0v0s0,0,.01.006v0s0,0.005.01,0.008h0a0.012,0.012,0,0,0,.01.013l1.25,1.711V49.859a0.128,0.128,0,0,1,.13-0.124h0.44a0.126,0.126,0,0,1,.12.124v2.764Zm2.43-2.319a0.119,0.119,0,0,1-.12.123h-1.2v0.468h1.2a0.12,0.12,0,0,1,.12.124v0.445a0.119,0.119,0,0,1-.12.123h-1.2v0.468h1.2a0.119,0.119,0,0,1,.12.123v0.445a0.12,0.12,0,0,1-.12.124h-1.76a0.11,0.11,0,0,1-.08-0.035h-0.01v0a0.123,0.123,0,0,1-.03-0.085h0V49.859h0a0.124,0.124,0,0,1,.03-0.085v0a0.162,0.162,0,0,1,.09-0.035h1.76a0.12,0.12,0,0,1,.12.124V50.3Z" transform="translate(-1384 -40)"/>
</svg>
