<svg xmlns="http://www.w3.org/2000/svg" width="24" height="24" viewBox="0 0 24 24">
  <defs>
    <style>
      .cls-1 {
        fill-rule: evenodd;
      }
    </style>
  </defs>
  <path id="sns_i.svg" class="cls-1" d="M1332,40a12,12,0,1,1-12,12A12,12,0,0,1,1332,40Zm5.96,14.474a4.688,4.688,0,0,1-.27,1.456,3.115,3.115,0,0,1-1.76,1.755,4.409,4.409,0,0,1-1.46.279c-0.64.03-.84,0.036-2.47,0.036s-1.83-.006-2.47-0.036a4.409,4.409,0,0,1-1.46-.279,2.951,2.951,0,0,1-1.06-.692,2.821,2.821,0,0,1-.69-1.063,4.385,4.385,0,0,1-.28-1.456c-0.03-.641-0.04-0.845-0.04-2.474s0.01-1.834.04-2.474a4.375,4.375,0,0,1,.28-1.456,2.806,2.806,0,0,1,.69-1.063,2.927,2.927,0,0,1,1.06-.692,4.409,4.409,0,0,1,1.46-.279c0.64-.029.84-0.036,2.47-0.036s1.83,0.007,2.47.036a4.409,4.409,0,0,1,1.46.279,2.927,2.927,0,0,1,1.06.692,2.961,2.961,0,0,1,.7,1.063,4.678,4.678,0,0,1,.27,1.456c0.03,0.64.04,0.844,0.04,2.474S1337.99,53.833,1337.96,54.474Zm-1.08-4.9a3.247,3.247,0,0,0-.2-1.114,1.877,1.877,0,0,0-.45-0.69,1.85,1.85,0,0,0-.69-0.449,3.3,3.3,0,0,0-1.12-.207c-0.63-.029-0.82-0.035-2.42-0.035s-1.79.006-2.42,0.035a3.3,3.3,0,0,0-1.12.207,1.85,1.85,0,0,0-.69.449,1.877,1.877,0,0,0-.45.69,3.247,3.247,0,0,0-.2,1.114c-0.03.633-.04,0.822-0.04,2.425s0.01,1.791.04,2.424a3.259,3.259,0,0,0,.2,1.115,2,2,0,0,0,1.14,1.139,3.349,3.349,0,0,0,1.12.207c0.63,0.028.82,0.035,2.42,0.035s1.79-.006,2.42-0.035a3.349,3.349,0,0,0,1.12-.207,2,2,0,0,0,1.14-1.139,3.259,3.259,0,0,0,.2-1.115c0.03-.633.04-0.822,0.04-2.424S1336.91,50.208,1336.88,49.576Zm-1.68-.059a0.72,0.72,0,1,1,.72-0.72A0.724,0.724,0,0,1,1335.2,49.517Zm-3.2,5.565A3.081,3.081,0,1,1,1335.08,52,3.081,3.081,0,0,1,1332,55.081ZM1332,50a2,2,0,1,0,2,2A2,2,0,0,0,1332,50Z" transform="translate(-1320 -40)"/>
</svg>
