<svg xmlns="http://www.w3.org/2000/svg" width="24" height="24" viewBox="0 0 24 24">
  <defs>
    <style>
      .cls-1 {
        fill-rule: evenodd;
      }
    </style>
  </defs>
  <path id="sns_t.svg" class="cls-1" d="M1300,40a12,12,0,1,1-12,12A12,12,0,0,1,1300,40Zm-2.23,17a7.055,7.055,0,0,0,7.01-7.18c0-.11,0-0.218-0.01-0.327a5.111,5.111,0,0,0,1.23-1.306,4.872,4.872,0,0,1-1.41.4,2.579,2.579,0,0,0,1.08-1.4,4.9,4.9,0,0,1-1.56.613,2.436,2.436,0,0,0-1.8-.8,2.492,2.492,0,0,0-2.46,2.524,2.726,2.726,0,0,0,.06.575,6.914,6.914,0,0,1-5.07-2.637,2.481,2.481,0,0,0-.34,1.268,2.546,2.546,0,0,0,1.1,2.1,2.4,2.4,0,0,1-1.12-.316v0.032a2.511,2.511,0,0,0,1.98,2.475,2.478,2.478,0,0,1-.65.088,2.308,2.308,0,0,1-.46-0.046,2.469,2.469,0,0,0,2.3,1.753,4.9,4.9,0,0,1-3.06,1.08,5.012,5.012,0,0,1-.59-0.035A6.839,6.839,0,0,0,1297.77,57" transform="translate(-1288 -40)"/>
</svg>
